<?xml version="1.0" standalone="no"?>
<!DOCTYPE svg PUBLIC "-//W3C//DTD SVG 20010904//EN"
 "http://www.w3.org/TR/2001/REC-SVG-20010904/DTD/svg10.dtd">
<svg version="1.0" xmlns="http://www.w3.org/2000/svg"
 width="147.000000pt" height="138.000000pt" viewBox="0 0 147.000000 138.000000"
 preserveAspectRatio="xMidYMid meet">

<g transform="translate(0.000000,138.000000) scale(0.100000,-0.100000)"
fill="#000000" stroke="none">
<path d="M621 1260 c-272 -57 -481 -313 -481 -590 0 -224 141 -446 341 -539
93 -44 170 -61 269 -61 70 0 174 23 198 43 8 7 16 10 16 8 2 -8 76 21 76 30 0
5 6 9 13 9 7 0 31 17 53 38 22 20 33 31 24 24 -27 -20 -34 -14 -9 7 13 10 29
17 35 14 7 -2 15 4 18 15 4 11 13 23 21 26 21 8 19 46 -2 46 -17 1 -17 1 -1
10 10 6 14 18 11 32 -3 17 -2 19 5 9 12 -16 28 -8 43 22 l10 22 -18 -21 -18
-20 -21 22 c-12 13 -19 26 -15 29 3 4 -3 13 -13 21 -11 7 -17 17 -13 20 4 4
12 2 20 -4 10 -9 13 -4 14 24 l1 34 -20 -26 c-15 -18 -28 -24 -44 -21 -13 2
-29 -2 -35 -9 -6 -8 -29 -14 -50 -14 -55 0 -89 -34 -89 -89 0 -30 -4 -41 -15
-41 -19 0 -21 74 -2 109 16 31 73 61 116 61 27 0 32 3 23 12 -6 6 -39 12 -72
12 -48 1 -60 4 -58 16 2 10 22 17 62 22 33 4 62 11 65 16 19 26 102 58 86 33
-3 -5 -1 -12 5 -16 5 -3 10 -1 10 5 0 6 4 8 10 5 15 -10 7 38 -9 51 -12 9 -11
12 3 17 13 5 16 17 14 47 -1 32 -5 39 -17 34 -34 -14 -51 -16 -68 -9 -10 5
-22 7 -28 6 -5 -2 -7 1 -3 5 17 17 -17 34 -68 34 -29 0 -56 5 -59 11 -10 16
-5 17 59 21 49 3 62 7 82 31 20 24 42 38 31 20 -3 -5 8 -9 24 -10 34 -3 39 12
7 20 -12 4 -19 9 -16 12 3 4 16 1 28 -5 28 -15 35 -7 34 41 -1 21 2 39 7 39 5
0 9 -5 9 -12 0 -8 6 -6 17 5 15 14 15 20 3 42 -9 18 -16 22 -21 13 -10 -16 -1
-30 13 -22 7 4 8 2 4 -4 -13 -21 -38 -14 -36 11 4 44 0 68 -10 62 -6 -4 -17
-1 -25 5 -8 7 -15 9 -15 5 0 -4 -6 -2 -14 4 -8 7 -13 23 -11 36 1 16 -3 25
-11 25 -8 0 -14 4 -14 8 0 5 -12 15 -27 22 -16 8 -39 22 -53 31 -14 9 -54 26
-90 39 -73 25 -234 35 -309 20z m48 -173 c10 -26 4 -52 -15 -68 -9 -7 -14 -32
-14 -70 0 -33 -2 -59 -4 -59 -2 0 -11 -3 -20 -6 -14 -5 -16 3 -16 55 0 48 -5
69 -22 91 -18 25 -20 33 -10 55 22 49 83 50 101 2z m236 31 c20 -9 25 -18 25
-49 0 -28 -5 -41 -20 -49 -17 -9 -20 -21 -20 -76 0 -48 -3 -65 -12 -62 -8 3
-14 28 -16 65 -2 45 -8 65 -22 78 -26 23 -25 60 0 85 23 23 30 24 65 8z m-124
-58 c26 -14 26 -71 -1 -95 -11 -10 -20 -24 -20 -32 0 -7 -7 -13 -15 -13 -8 0
-15 7 -15 15 0 8 -9 24 -20 35 -11 11 -20 29 -20 40 0 24 34 60 56 60 8 0 24
-5 35 -10z m-257 -47 c9 -23 -12 -81 -34 -93 -23 -12 -90 -13 -90 -1 0 5 18
11 40 15 42 7 60 27 60 70 0 29 15 35 24 9z m491 -8 c1 -44 16 -64 53 -71 48
-9 55 -13 43 -28 -19 -23 -80 -7 -106 29 -30 39 -35 98 -7 93 9 -2 17 -12 17
-23z m-65 -2 c0 -10 5 -35 11 -55 11 -43 56 -73 95 -65 28 5 53 -8 39 -22 -24
-23 -87 -16 -123 14 -44 37 -68 145 -32 145 5 0 10 -8 10 -17z m-375 -13 c12
-39 -17 -106 -57 -126 -30 -15 -108 -19 -108 -5 0 5 20 12 44 15 28 4 54 16
68 31 24 25 25 27 27 75 1 34 16 40 26 10z m263 -134 c61 -32 112 -114 112
-181 0 -72 -48 -147 -114 -180 -37 -19 -139 -19 -174 -1 -15 8 -41 29 -58 48
-88 94 -65 238 51 309 37 23 143 26 183 5z m-433 -16 c14 -16 31 -20 81 -20
52 0 62 -3 58 -15 -5 -11 -22 -15 -64 -15 -44 0 -61 -4 -75 -20 -34 -38 -95
-16 -95 35 0 51 61 73 95 35z m705 -115 c23 -12 30 -22 30 -46 0 -17 3 -28 8
-26 4 3 13 -2 21 -10 12 -13 11 -14 -6 -9 -11 4 -33 0 -49 -9 -39 -20 -47 -19
-78 10 -15 14 -31 25 -35 25 -5 0 -11 9 -14 20 -3 11 -2 18 2 16 4 -3 25 6 47
19 47 29 39 28 74 10z m77 0 c8 -22 -6 -33 -17 -15 -13 20 -12 30 0 30 6 0 13
-7 17 -15z m-727 -15 c11 -11 25 -20 30 -20 6 0 10 -7 10 -15 0 -8 -4 -15 -10
-15 -5 0 -19 -9 -31 -21 -27 -27 -69 -22 -88 12 -13 24 -13 29 2 53 21 32 59
34 87 6z m704 -15 c3 -8 1 -15 -4 -15 -6 0 -10 7 -10 15 0 8 2 15 4 15 2 0 6
-7 10 -15z m-759 -115 c14 -16 31 -20 75 -20 42 0 59 -4 64 -15 4 -12 -6 -15
-58 -15 -50 0 -67 -4 -81 -20 -36 -40 -95 -15 -95 40 0 49 61 68 95 30z m132
-112 c37 -31 59 -138 28 -138 -10 0 -15 10 -15 30 0 67 -43 110 -111 110 -16
0 -29 4 -29 9 0 23 96 15 127 -11z m363 -128 c15 0 36 -52 32 -77 -5 -34 -67
-47 -99 -21 -21 17 -16 71 7 86 16 10 20 23 20 70 0 33 5 63 13 71 10 10 13
-2 15 -58 2 -39 7 -71 12 -71z m-276 124 c12 -5 16 -20 16 -62 0 -37 5 -61 16
-73 20 -22 21 -63 4 -84 -21 -25 -72 -15 -89 17 -14 25 -14 29 7 57 17 23 22
44 22 91 0 33 2 60 4 60 2 0 11 -3 20 -6z m486 -39 c-5 -13 -15 -19 -30 -17
-13 1 -34 -5 -48 -14 -18 -12 -23 -22 -20 -45 3 -19 -1 -30 -10 -34 -19 -7
-21 -5 -24 32 -4 57 50 103 118 100 18 -1 20 -5 14 -22z m50 15 c0 -5 -2 -10
-4 -10 -2 0 -12 -3 -22 -7 -16 -6 -17 -5 -4 10 17 19 30 22 30 7z m-661 -26
c23 -30 30 -98 9 -92 -7 3 -14 19 -16 36 -4 35 -34 62 -69 62 -13 0 -23 5 -23
10 0 6 18 10 39 10 31 0 44 -6 60 -26z m261 3 c0 -8 9 -22 20 -32 41 -37 19
-105 -34 -105 -22 0 -56 36 -56 60 0 11 9 29 20 40 11 11 20 27 20 35 0 8 7
15 15 15 8 0 15 -6 15 -13z m400 -97 c0 -5 -7 -10 -15 -10 -8 0 -15 5 -15 10
0 6 7 10 15 10 8 0 15 -4 15 -10z m18 -35 c-13 -13 -24 -20 -26 -15 -4 12 30
50 40 44 5 -3 -2 -16 -14 -29z"/>
<path d="M600 1072 c0 -26 10 -33 31 -21 22 12 14 39 -12 39 -12 0 -19 -7 -19
-18z"/>
<path d="M856 1075 c-3 -9 1 -18 10 -22 19 -7 39 11 30 26 -10 16 -33 13 -40
-4z"/>
<path d="M737 1034 c-15 -15 -7 -45 11 -42 9 2 17 12 17 22 0 20 -16 31 -28
20z"/>
<path d="M691 733 c-48 -104 -63 -183 -24 -125 21 30 89 32 98 2 10 -31 28
-24 22 8 -10 48 -56 142 -70 142 -8 0 -19 -12 -26 -27z m49 -65 c0 -13 -8 -18
-25 -18 -28 0 -29 4 -14 50 l12 33 13 -24 c7 -13 13 -32 14 -41z"/>
<path d="M830 674 c0 -64 3 -85 13 -82 13 5 22 106 12 145 -12 51 -25 19 -25
-63z"/>
<path d="M344 815 c-4 -9 -2 -21 4 -27 15 -15 44 -1 40 19 -4 23 -36 29 -44 8z"/>
<path d="M1071 691 c-15 -9 -8 -41 8 -41 15 0 23 18 14 34 -5 10 -13 12 -22 7z"/>
<path d="M394 685 c-4 -9 -2 -21 4 -27 15 -15 44 -1 40 19 -4 23 -36 29 -44 8z"/>
<path d="M344 555 c-7 -18 3 -35 21 -35 15 0 28 27 19 41 -8 14 -34 11 -40 -6z"/>
<path d="M857 294 c-9 -9 4 -34 18 -34 11 0 25 20 25 36 0 6 -36 5 -43 -2z"/>
<path d="M604 295 c-7 -18 3 -35 21 -35 18 0 26 25 12 39 -15 15 -27 14 -33
-4z"/>
<path d="M727 346 c-8 -19 15 -37 32 -26 17 10 7 40 -13 40 -7 0 -16 -6 -19
-14z"/>
<path d="M1134 1103 c2 -10 7 -18 12 -18 5 0 16 -4 24 -9 8 -5 4 3 -9 17 -29
32 -30 32 -27 10z"/>
<path d="M1191 834 c0 -11 3 -14 6 -6 3 7 2 16 -1 19 -3 4 -6 -2 -5 -13z"/>
<path d="M1115 820 c-4 -6 -1 -18 6 -26 11 -14 13 -14 21 0 15 26 -12 51 -27
26z"/>
<path d="M1191 564 c0 -11 3 -14 6 -6 3 7 2 16 -1 19 -3 4 -6 -2 -5 -13z"/>
<path d="M1117 555 c-7 -15 1 -25 20 -25 7 0 13 6 13 14 0 19 -27 28 -33 11z"/>
<path d="M1296 503 c-6 -14 -5 -15 5 -6 7 7 10 15 7 18 -3 3 -9 -2 -12 -12z"/>
<path d="M1215 341 c-6 -11 9 -23 19 -14 9 9 7 23 -3 23 -6 0 -12 -4 -16 -9z"/>
</g>
</svg>
