<?xml version="1.0" standalone="no"?>
<!DOCTYPE svg PUBLIC "-//W3C//DTD SVG 20010904//EN"
 "http://www.w3.org/TR/2001/REC-SVG-20010904/DTD/svg10.dtd">
<svg version="1.0" xmlns="http://www.w3.org/2000/svg"
 width="60.000000pt" height="60.000000pt" viewBox="0 0 60.000000 60.000000"
 preserveAspectRatio="xMidYMid meet">
<metadata>
Created by potrace 1.16, written by Peter Selinger 2001-2019
</metadata>
<g transform="translate(0.000000,60.000000) scale(0.100000,-0.100000)"
fill="#000000" stroke="none">
<path d="M205 523 c-44 -23 -94 -73 -118 -118 -29 -54 -31 -183 -3 -235 70
-134 214 -182 336 -113 30 16 56 36 58 43 3 8 0 10 -9 5 -8 -5 -6 1 5 13 14
16 19 38 20 87 0 36 -1 66 -4 68 -3 1 -3 34 0 72 3 50 9 69 18 67 16 -3 -1 32
-21 44 -8 5 -7 2 2 -10 11 -13 12 -19 2 -29 -10 -9 -11 -8 -6 4 4 10 2 20 -4
23 -6 4 -8 13 -5 21 4 9 -13 24 -48 44 -45 26 -63 31 -123 31 -44 -1 -81 -7
-100 -17z m144 -68 c21 -14 58 -29 82 -33 l44 -8 0 -64 c0 -107 -52 -207 -128
-246 -38 -20 -68 -12 -116 31 -49 45 -81 118 -88 205 l-6 68 41 7 c22 3 60 19
84 35 23 16 44 29 46 29 1 1 20 -10 41 -24z"/>
</g>
</svg>
