<?xml version="1.0" standalone="no"?>
<!DOCTYPE svg PUBLIC "-//W3C//DTD SVG 20010904//EN"
 "http://www.w3.org/TR/2001/REC-SVG-20010904/DTD/svg10.dtd">
<svg version="1.0" xmlns="http://www.w3.org/2000/svg"
 width="1024.000000pt" height="1024.000000pt" viewBox="0 0 1024.000000 1024.000000"
 preserveAspectRatio="xMidYMid meet">

<g transform="translate(0.000000,1024.000000) scale(0.100000,-0.100000)"
fill="#000000" stroke="none">
<path d="M4865 9040 c-329 -35 -547 -86 -829 -195 -342 -132 -649 -325 -920
-578 -145 -135 -238 -243 -351 -407 -202 -295 -318 -529 -414 -835 -66 -211
-87 -317 -122 -611 -15 -127 -7 -474 15 -635 25 -179 83 -407 147 -574 165
-430 431 -824 759 -1123 201 -184 339 -278 600 -411 478 -243 883 -338 1395
-325 463 11 824 107 1265 336 266 139 471 289 674 493 293 295 519 630 649
960 19 50 47 120 61 157 39 100 102 359 117 483 8 70 13 220 13 410 0 282 -2
309 -28 455 -55 313 -123 516 -272 815 -115 230 -317 516 -494 699 -191 198
-478 419 -707 544 -144 79 -401 186 -567 236 -315 96 -699 136 -991 106z m353
-180 c13 0 20 -5 17 -10 -3 -6 -2 -10 4 -10 5 0 12 4 15 8 3 5 20 9 38 10 21
0 28 -2 18 -8 -9 -6 -2 -11 26 -19 21 -6 47 -11 57 -11 10 0 16 -4 13 -9 -3
-4 23 -11 57 -14 153 -15 186 -20 181 -28 -3 -5 13 -9 35 -9 23 0 41 -4 41
-10 0 -11 91 -55 240 -115 116 -47 187 -81 270 -130 30 -18 89 -52 130 -75 72
-41 410 -295 477 -357 21 -20 34 -26 37 -18 2 7 18 22 34 34 l30 21 31 -26
c59 -49 58 -54 -20 -146 -82 -96 -133 -168 -75 -104 20 22 39 36 43 33 3 -4
12 -2 19 4 8 6 21 9 29 5 9 -3 15 0 15 9 0 10 10 15 30 15 17 0 30 -4 30 -10
0 -5 9 -10 20 -10 11 0 20 -4 20 -10 0 -5 8 -17 18 -27 21 -20 142 -179 142
-186 0 -3 18 -34 39 -68 22 -35 52 -88 67 -118 14 -29 41 -69 58 -89 24 -28
27 -34 11 -28 -15 5 -17 4 -9 -4 9 -9 17 -9 32 -1 11 6 25 11 31 11 13 0 48
-51 56 -82 6 -22 0 -29 -44 -58 -28 -17 -48 -37 -44 -43 3 -6 1 -7 -5 -3 -7 4
-12 2 -12 -3 0 -6 -7 -11 -16 -11 -26 0 -134 -62 -127 -73 3 -6 1 -7 -5 -3 -6
4 -22 2 -34 -5 -22 -12 -22 -12 -3 -21 17 -7 16 -8 -4 -4 -17 4 -54 -11 -120
-48 -53 -30 -136 -76 -186 -103 -141 -78 -329 -185 -340 -195 -18 -17 24 3
103 48 42 24 82 44 89 44 7 0 13 4 13 8 0 17 70 32 149 32 l83 0 -7 -40 c-6
-36 -5 -40 14 -40 12 0 21 5 21 10 0 6 9 10 19 10 19 0 31 18 31 46 0 8 -9 14
-20 14 -27 0 -25 7 10 40 35 32 37 40 13 40 -10 0 -25 4 -33 10 -12 7 -12 12
4 29 10 11 25 20 34 20 36 0 87 17 74 24 -6 5 -17 5 -24 1 -6 -4 -8 -3 -5 3
11 17 45 22 51 7 3 -8 20 -14 41 -14 28 0 35 4 35 20 0 17 7 20 41 20 l41 0
-3 43 c-4 41 -3 44 21 41 14 -1 33 -2 43 -3 10 -1 17 -9 17 -21 0 -17 7 -20
40 -20 22 0 40 4 40 9 0 5 11 11 24 13 21 4 25 -1 36 -36 6 -23 16 -55 21 -72
5 -16 13 -50 18 -75 18 -83 58 -224 71 -249 7 -14 21 -34 31 -45 23 -26 28
-68 35 -307 l6 -198 -31 0 c-23 0 -30 5 -33 23 -2 18 -8 21 -30 19 -27 -3 -28
-1 -28 37 0 34 -3 41 -20 41 -11 0 -20 -4 -20 -10 0 -5 -9 -10 -20 -10 -16 0
-20 -7 -20 -30 0 -23 -4 -30 -20 -30 -13 0 -20 -7 -20 -20 0 -18 -7 -20 -60
-20 -38 0 -60 -4 -60 -11 0 -8 -20 -10 -60 -7 -45 3 -60 1 -60 -9 0 -10 22
-13 89 -13 118 0 150 -7 164 -37 8 -18 7 -31 -6 -58 -14 -29 -22 -35 -64 -41
-26 -4 -209 -4 -408 0 -209 4 -373 3 -390 -3 -22 -6 2 -9 95 -11 69 -1 169 -2
223 -3 l97 -2 0 -82 c0 -72 2 -83 18 -84 9 -1 -1 -5 -23 -9 -25 -4 19 -8 117
-9 149 -1 158 -2 184 -24 33 -29 28 -49 -18 -77 -30 -18 -51 -20 -251 -20
-165 0 -226 3 -252 14 -31 13 -57 44 -54 63 6 38 -1 43 -61 43 -34 0 -60 -4
-60 -10 0 -6 -19 -9 -42 -8 -38 3 -43 0 -46 -19 -2 -15 -10 -23 -24 -23 -17 0
-18 -2 -8 -15 19 -22 7 -27 -26 -11 -106 51 -211 87 -474 160 -235 66 -567
125 -711 125 -84 1 -86 2 -99 29 -7 15 -15 55 -17 88 -5 52 -1 71 21 119 30
66 84 138 97 129 5 -3 9 -29 9 -57 0 -83 16 -121 68 -167 89 -79 105 -83 283
-78 169 6 212 17 217 56 4 26 -81 181 -145 265 -24 31 -42 57 -40 57 3 0 24
-7 48 -15 24 -9 75 -18 114 -22 167 -14 314 79 389 246 l20 43 55 -7 c31 -3
67 -2 81 4 14 5 20 10 13 10 -15 1 -47 86 -40 105 4 11 -2 14 -24 14 -38 -1
-45 6 -31 37 14 30 12 31 -63 39 -27 3 -88 10 -135 16 -258 34 -446 -75 -511
-295 -28 -94 -31 -96 -94 -89 -132 16 -301 -66 -390 -189 l-45 -61 0 209 0
208 55 58 c125 131 155 319 83 509 -44 116 -164 270 -210 270 -22 0 -108 -106
-163 -201 -43 -72 -49 -91 -58 -171 -12 -105 -1 -201 33 -293 17 -44 38 -75
82 -116 l58 -57 0 -158 c0 -88 -3 -182 -6 -211 l-7 -51 -39 58 c-83 125 -213
190 -380 190 l-86 0 -23 68 c-32 97 -51 131 -106 185 -84 85 -153 124 -230
133 -79 8 -235 -1 -313 -19 -47 -11 -55 -16 -58 -37 -2 -14 -7 -34 -11 -45 -5
-11 -13 -39 -18 -62 -9 -37 -8 -41 9 -40 10 1 18 5 18 10 0 4 12 7 27 5 24 -3
32 -13 58 -75 33 -79 74 -127 147 -174 88 -57 221 -75 322 -44 79 24 82 19 20
-48 -52 -55 -164 -238 -164 -266 0 -46 294 -79 407 -46 116 34 183 123 183
244 l1 66 50 -54 c71 -75 91 -121 97 -212 6 -111 2 -116 -105 -116 -126 -1
-195 -10 -393 -49 -432 -87 -698 -177 -1095 -370 -44 -21 -84 -41 -89 -43 -5
-2 1 6 12 17 12 12 34 25 48 28 69 17 158 182 114 209 -6 4 -10 -8 -10 -29 0
-25 -7 -40 -26 -55 -25 -20 -39 -21 -279 -21 -245 0 -253 1 -281 22 -16 12
-32 27 -36 32 -11 16 19 63 44 70 13 3 122 6 243 7 121 1 208 4 193 6 -25 4
-28 8 -28 44 0 21 -4 39 -10 39 -5 0 -10 9 -10 20 0 17 -7 20 -40 20 -33 0
-40 3 -40 19 0 16 10 20 63 26 34 3 78 5 97 3 19 -1 150 0 290 2 l255 4 -250
6 c-137 4 -399 8 -582 9 l-332 1 -20 26 c-26 34 -26 54 -1 82 21 22 25 22 378
24 l357 3 -280 5 c-154 3 -269 7 -255 9 19 2 14 5 -20 12 -27 5 -58 5 -80 -1
-19 -5 -49 -10 -67 -10 -20 0 -36 -7 -42 -17 -9 -16 -11 -15 -12 7 -1 20 -2
21 -6 6 -4 -15 -7 -16 -15 -5 -7 11 -11 11 -15 2 -2 -7 -13 -13 -24 -13 -10 0
-19 -4 -19 -10 0 -5 -13 -10 -30 -10 -16 0 -30 5 -30 10 0 6 -9 10 -20 10 -13
0 -20 7 -20 20 0 13 -7 20 -19 20 -17 0 -21 -8 -24 -52 -2 -29 -4 8 -4 82 -1
80 2 125 7 110 8 -24 8 -24 9 -2 1 12 7 22 16 22 8 0 15 5 15 10 0 6 9 10 20
10 13 0 20 7 20 20 0 13 7 20 20 20 11 0 20 5 20 10 0 6 74 10 202 10 111 0
199 2 197 4 -3 3 -121 6 -264 8 l-260 3 4 100 c2 55 9 114 16 132 12 29 18 32
62 35 35 2 48 7 48 18 0 11 -10 14 -42 12 -31 -2 -43 0 -43 10 0 33 81 330 99
366 12 23 21 46 21 51 0 5 5 22 12 38 6 15 13 36 15 46 14 73 174 367 199 367
20 0 17 -13 -6 -30 -11 -8 -20 -20 -20 -27 0 -7 -4 -13 -10 -13 -5 0 -10 -6
-10 -12 0 -11 53 41 89 88 17 22 31 54 24 54 -4 0 0 5 9 11 23 13 82 99 68 99
-5 0 -10 -4 -10 -10 0 -5 -11 -10 -25 -10 -14 0 -25 5 -25 10 0 9 15 14 33 11
5 -1 6 3 2 9 -8 13 14 52 25 45 6 -4 7 1 3 11 -5 13 -2 16 9 11 11 -4 15 -1
12 11 -3 9 7 31 20 47 20 24 24 26 22 10 -3 -22 16 -45 36 -45 22 1 49 27 51
49 1 13 8 21 19 21 10 0 18 7 18 15 0 13 19 19 55 18 28 -1 44 -14 99 -78 34
-38 64 -72 67 -75 3 -3 10 -16 14 -30 4 -14 14 -30 22 -35 18 -13 27 -96 11
-106 -15 -9 14 -39 37 -39 14 0 16 6 11 35 -7 36 3 45 23 21 9 -11 9 -15 -1
-19 -7 -3 -1 -6 15 -6 16 -1 27 -7 27 -15 0 -7 9 -16 20 -19 11 -3 19 -9 18
-14 -2 -5 23 -35 55 -66 32 -32 55 -62 52 -67 -3 -6 -1 -10 6 -10 7 0 24 -10
38 -22 14 -13 -8 15 -49 62 -40 47 -80 87 -87 90 -8 3 -13 8 -12 10 6 10 -45
69 -54 63 -6 -3 -7 -2 -4 4 3 5 -39 61 -95 124 -55 63 -132 151 -170 197 -62
73 -73 83 -95 77 l-25 -6 21 29 c30 43 170 167 187 166 7 -1 12 2 9 6 -3 5 10
20 27 34 18 15 40 32 48 39 61 51 166 127 177 127 7 0 13 4 13 9 0 10 60 37
73 33 5 -1 6 2 2 7 -7 12 26 31 55 31 12 0 19 4 16 9 -4 5 4 7 16 3 21 -5 21
-6 3 -12 -19 -7 -18 -7 3 -19 26 -14 53 -4 31 11 -11 7 -11 9 1 7 29 -3 40 1
40 16 0 8 -5 15 -12 15 -6 0 -9 3 -6 6 4 3 15 1 25 -5 15 -8 31 -4 69 15 54
28 327 143 359 151 11 3 38 13 60 23 22 9 57 23 78 31 32 11 38 17 34 36 -2
13 0 23 4 23 5 0 9 -10 9 -21 0 -20 3 -21 57 -14 32 4 70 13 84 21 15 7 29 10
32 7 4 -3 13 -1 21 6 8 6 18 11 22 9 14 -3 54 12 54 21 0 5 -16 8 -35 7 -19 0
-35 -4 -35 -8 0 -3 -9 -4 -20 -1 -25 7 -26 23 -2 24 9 0 67 6 127 14 94 11
203 13 473 5z m147 -10 c-3 -5 -12 -10 -18 -10 -7 0 -6 4 3 10 19 12 23 12 15
0z m-775 -24 c0 -11 -19 -15 -25 -6 -3 5 1 10 9 10 9 0 16 -2 16 -4z m-317
-93 c3 -5 -6 -9 -20 -10 -19 -1 -22 1 -12 8 17 11 26 11 32 2z m-118 -43 c-3
-5 -14 -10 -23 -10 -15 0 -15 2 -2 10 20 13 33 13 25 0z m-45 -16 c0 -12 -34
-33 -53 -34 -10 0 -28 -5 -40 -12 -29 -16 -49 -19 -45 -6 2 5 28 20 58 33 58
24 80 29 80 19z m-185 -74 c-3 -5 -12 -10 -18 -10 -7 0 -6 4 3 10 19 12 23 12
15 0z m2801 -321 c3 -6 3 -13 0 -16 -7 -8 -44 25 -58 51 -9 17 -7 17 21 -3 17
-12 33 -27 37 -32z m50 -44 c15 -14 24 -25 20 -25 -12 0 -56 32 -56 41 0 14 7
11 36 -16z m-3709 -280 c-7 -14 -16 -25 -20 -25 -8 0 -2 14 16 38 15 19 16 14
4 -13z m-44 -50 c-3 -9 -8 -14 -10 -11 -3 3 -2 9 2 15 9 16 15 13 8 -4z m4151
-71 c9 -24 7 -27 -9 -10 -17 17 -19 26 -6 26 5 0 12 -7 15 -16z m-4304 -148
c0 -2 -8 -10 -17 -17 -16 -13 -17 -12 -4 4 13 16 21 21 21 13z m-26 -61 c-5
-13 -34 -30 -34 -20 0 3 5 14 12 24 13 22 30 19 22 -4z m2301 -463 c35 -87 41
-148 20 -232 -25 -102 -77 -172 -88 -118 -4 17 -5 16 -4 -6 1 -16 -3 -31 -9
-33 -19 -6 -83 69 -99 116 -44 135 -29 209 77 389 l20 32 29 -44 c16 -24 40
-71 54 -104z m2135 -96 c0 -3 -4 -8 -10 -11 -5 -3 -10 -1 -10 4 0 6 5 11 10
11 6 0 10 -2 10 -4z m-260 -177 c0 -5 -13 -9 -29 -9 -16 0 -45 -7 -64 -15 -62
-26 -64 -16 -3 14 54 26 96 31 96 10z m-2829 -182 c56 -23 114 -82 139 -138
12 -28 18 -54 14 -57 -4 -4 -9 -1 -11 6 -3 6 -10 12 -16 12 -6 0 -18 6 -26 13
-9 8 -56 32 -104 55 l-88 42 54 -50 c30 -28 66 -59 78 -70 l24 -19 -53 -1
c-45 0 -58 4 -85 30 -27 26 -33 27 -35 12 -8 -37 -22 -35 -64 9 -47 49 -112
162 -100 174 12 13 234 -1 273 -18z m1978 17 c17 -4 31 -13 31 -21 0 -46 -118
-213 -151 -213 -5 0 -7 4 -4 10 7 11 -12 6 -64 -17 -25 -11 -52 -14 -99 -10
-74 7 -92 18 -92 57 0 88 68 167 165 191 38 9 173 11 214 3z m-2075 -216 c-5
-8 -2 -9 9 -5 11 4 17 1 17 -9 0 -12 -4 -13 -20 -4 -17 9 -20 30 -4 30 3 0 2
-5 -2 -12z m99 -35 c-7 -2 -21 -2 -30 0 -10 3 -4 5 12 5 17 0 24 -2 18 -5z
m438 -153 c26 -14 24 -36 -3 -45 -18 -6 -20 -8 -7 -12 48 -12 16 -96 -50 -130
-32 -16 -53 -20 -89 -16 -81 8 -80 30 5 86 31 20 51 37 46 37 -15 0 -125 -74
-147 -98 -21 -24 -46 -29 -46 -10 0 27 80 144 110 162 60 35 142 46 181 26z
m998 -19 c47 -25 69 -50 102 -119 27 -56 30 -84 5 -49 -7 9 -23 17 -35 17 -11
0 -21 5 -21 11 0 5 -5 7 -12 3 -6 -4 -16 -1 -22 7 -17 22 -66 40 -90 34 -11
-2 -15 -2 -8 1 19 9 14 20 -13 32 -14 6 -25 10 -25 8 0 -3 -3 -12 -7 -22 -4
-11 -2 -15 4 -11 6 4 11 -4 11 -19 l0 -26 -19 29 c-22 32 -26 68 -7 57 7 -5 3
5 -10 20 -39 50 -31 60 44 52 37 -4 83 -15 103 -25z m-2842 -197 c-3 -3 -12
-4 -19 -1 -8 3 -5 6 6 6 11 1 17 -2 13 -5z m2302 -51 c6 -16 15 -50 21 -77 27
-125 150 -384 306 -646 135 -226 174 -297 206 -374 47 -114 58 -146 48 -146
-5 0 -12 -11 -16 -25 -3 -14 -9 -23 -13 -21 -4 3 -13 1 -21 -4 -12 -7 -12 -13
-1 -37 30 -64 27 -70 -42 -77 -146 -17 -282 -72 -409 -167 -56 -42 -65 -45
-97 -38 -35 8 -85 55 -75 71 3 4 -7 8 -21 8 -18 0 -24 -4 -19 -12 6 -10 5 -10
-8 -1 -8 7 -17 11 -20 8 -3 -3 -24 14 -48 37 -23 24 -50 43 -59 44 -9 0 -23 3
-31 7 -8 3 -51 13 -95 22 -44 9 -94 20 -111 26 -17 5 -57 9 -89 9 -32 0 -55 3
-52 6 3 4 34 6 68 5 35 -1 60 2 56 5 -4 4 -2 13 5 21 9 11 7 15 -10 20 -12 3
-22 13 -22 23 0 10 -9 20 -22 23 -13 2 -31 8 -40 12 -13 5 -20 -2 -32 -29 -23
-56 -28 -42 -5 17 34 88 223 456 298 580 78 130 147 264 220 432 54 122 66
159 76 225 13 80 34 101 54 53z m2665 -135 c-5 -69 -43 -310 -50 -317 -2 -2
-4 7 -4 20 0 20 -2 21 -11 9 -8 -12 -9 -11 -4 6 3 13 0 28 -10 37 -8 9 -15 32
-15 51 0 33 -2 36 -30 36 l-30 0 0 60 0 60 40 0 c33 0 40 3 40 20 0 20 14 27
23 13 2 -5 2 -2 0 5 -3 12 35 60 49 61 4 1 5 -27 2 -61z m-5122 35 c25 -22 23
-33 -7 -33 -20 0 -25 5 -25 25 0 29 7 31 32 8z m4801 -30 c-7 -2 -19 -2 -25 0
-7 3 -2 5 12 5 14 0 19 -2 13 -5z m-4996 -91 c3 -33 1 -42 -11 -42 -9 0 -16 7
-16 16 0 8 5 12 10 9 15 -9 12 13 -6 40 -14 22 -14 23 2 21 12 -2 18 -14 21
-44z m2383 -19 c0 -9 -7 -13 -197 -94 -177 -76 -416 -197 -494 -250 -61 -41
-252 -178 -358 -256 -97 -72 -235 -190 -340 -292 -52 -50 -98 -91 -103 -91 -4
0 -8 -7 -8 -15 0 -8 -3 -15 -7 -15 -5 0 -37 -36 -73 -80 -36 -44 -71 -80 -78
-80 -7 0 -11 -4 -8 -9 8 -13 -31 -44 -47 -38 -11 4 -13 0 -9 -15 3 -11 -1 -24
-9 -29 -20 -13 -29 -11 -29 6 0 8 -4 15 -10 15 -5 0 -10 25 -10 55 0 49 -2 55
-21 55 -16 0 -20 -5 -16 -20 4 -16 0 -20 -19 -20 -19 0 -24 -5 -24 -25 0 -18
-4 -23 -16 -18 -14 5 -15 3 -4 -18 14 -26 12 -25 -50 43 -38 43 -41 50 -29 65
13 16 12 17 -3 5 -15 -12 -21 -7 -51 41 -20 30 -43 70 -52 88 -10 19 -33 55
-51 80 l-34 47 37 33 c142 125 668 419 998 559 192 81 562 188 775 224 52 9
140 25 195 35 112 21 145 24 145 14z m730 -29 c249 -41 517 -109 720 -182 358
-129 792 -360 1102 -589 l88 -65 -26 -51 c-33 -64 -122 -200 -162 -247 -35
-41 -51 -35 -29 9 9 17 11 31 6 31 -6 0 -7 5 -4 10 5 8 12 7 23 -2 10 -7 6 0
-8 16 -32 36 -188 169 -217 184 -35 19 -48 14 -23 -8 13 -11 27 -20 32 -20 4
0 8 -6 8 -14 0 -8 7 -16 15 -20 8 -3 15 -12 15 -21 0 -18 11 -19 29 -2 11 9
13 9 7 0 -4 -7 -2 -13 3 -13 15 0 14 -27 -1 -32 -7 -3 -9 -12 -5 -22 4 -10 12
-14 19 -10 9 6 9 3 -1 -9 -7 -9 -17 -14 -22 -11 -11 6 -11 -3 -3 -45 4 -17 12
-31 19 -31 8 0 11 -8 8 -20 -4 -17 0 -20 24 -20 16 0 32 -3 36 -6 10 -11 -22
-64 -39 -64 -8 0 -13 -4 -10 -9 3 -4 -1 -17 -9 -27 -8 -10 -15 -28 -15 -39 -1
-20 -1 -20 -15 0 -13 16 -13 20 -1 27 8 4 13 16 11 26 -2 9 -4 23 -4 30 -1 6
-8 12 -17 12 -8 0 -12 5 -8 11 4 8 0 7 -15 -1 -12 -6 -19 -16 -15 -23 3 -7
-28 24 -69 68 -42 44 -85 98 -96 120 -11 22 -20 35 -21 28 0 -6 -67 55 -148
135 -152 151 -185 182 -307 287 -108 94 -201 164 -312 238 -57 38 -103 70
-103 72 0 2 16 -3 34 -10 26 -11 37 -12 42 -3 4 7 3 8 -4 4 -7 -4 -12 -3 -12
2 0 12 -24 22 -65 27 -16 3 -149 60 -295 128 -146 68 -274 127 -285 131 -11 3
-33 17 -50 30 -35 28 -58 30 175 -10z m-3110 -40 c0 -35 -15 -30 -16 6 -1 16
3 27 7 24 5 -3 9 -16 9 -30z m360 12 c0 -2 -7 -7 -16 -10 -8 -3 -12 -2 -9 4 6
10 25 14 25 6z m4593 -15 c3 -14 1 -18 -9 -14 -8 3 -14 9 -14 13 0 5 -8 11
-17 13 -12 3 -9 5 8 6 19 1 28 -5 32 -18z m-765 -122 c10 -16 9 -16 -15 -4
-15 8 -28 21 -29 29 -2 12 2 13 15 4 10 -6 23 -19 29 -29z m-1874 -1 c-39 -64
-105 -164 -140 -211 -24 -31 -44 -62 -44 -67 0 -5 -10 -26 -22 -47 -12 -21
-37 -67 -56 -103 -19 -36 -40 -72 -48 -81 -8 -8 -14 -21 -14 -27 0 -6 -5 -14
-12 -18 -7 -5 -8 -3 -3 6 5 8 4 11 -3 6 -6 -4 -9 -13 -6 -20 5 -13 -40 -103
-78 -158 -10 -14 -18 -32 -18 -40 0 -7 -7 -22 -15 -32 -13 -17 -15 -18 -15 -3
0 10 -8 17 -20 17 -19 0 -20 7 -20 120 0 102 2 120 16 120 9 0 12 5 8 13 -6
10 -4 10 7 0 19 -18 49 -16 49 3 0 9 13 28 30 44 16 15 26 31 22 35 -4 5 1 5
11 2 9 -4 17 -2 17 5 0 13 117 128 130 128 5 0 15 10 21 22 10 18 6 17 -23 -8
-76 -64 -159 -133 -251 -208 -53 -43 -94 -83 -90 -89 3 -6 1 -7 -6 -3 -6 4
-35 -15 -69 -46 -31 -30 -97 -87 -147 -128 -49 -41 -193 -178 -320 -306 -126
-127 -246 -239 -265 -249 -19 -10 -46 -26 -59 -36 -13 -11 -32 -19 -43 -19
-13 0 -17 -4 -11 -12 20 -33 8 -36 -22 -7 -18 18 -32 36 -30 39 2 4 -2 7 -9 7
-7 0 -32 15 -54 34 l-40 33 32 31 c17 16 47 55 66 85 55 86 139 180 339 380
136 136 229 218 348 307 216 164 413 292 547 356 61 30 149 72 196 95 87 42
127 52 114 30z m878 -89 c401 -201 732 -451 1035 -777 149 -160 190 -211 267
-327 l67 -100 -82 -78 c-56 -54 -86 -76 -97 -72 -9 3 -13 3 -9 -1 8 -8 -11
-34 -24 -34 -5 0 -9 11 -9 25 0 31 -10 47 -119 195 -138 186 -654 685 -881
852 -128 93 -137 99 -137 83 0 -8 9 -17 20 -21 10 -3 23 -19 29 -34 7 -20 17
-30 35 -32 14 -2 31 -12 37 -22 6 -11 19 -28 29 -38 9 -10 17 -24 17 -31 0 -8
7 -14 14 -14 29 0 86 -47 86 -71 0 -13 3 -21 8 -18 15 9 42 -22 46 -52 2 -19
-1 -29 -6 -26 -6 4 -7 -3 -2 -17 4 -13 6 -45 5 -71 -1 -35 3 -49 17 -60 18
-13 20 -21 23 -100 1 -24 6 -49 12 -56 8 -11 5 -12 -19 -6 -16 4 -34 7 -40 7
-7 0 -24 32 -39 71 -37 96 -115 251 -185 366 -31 52 -83 142 -116 200 -32 58
-91 156 -131 218 -40 62 -73 118 -73 126 0 16 92 -19 222 -85z m1100 43 c8 -8
5 -9 -11 -5 -12 3 -24 9 -26 13 -8 12 23 6 37 -8z m960 -14 c-8 -8 -9 -4 -5
13 4 13 8 18 11 10 2 -7 -1 -18 -6 -23z m-5214 -3 c0 -14 -5 -25 -10 -25 -5 0
-7 4 -3 9 3 5 1 12 -5 16 -6 4 -8 11 -5 16 11 17 23 9 23 -16z m4332 -22 c11
-10 5 -9 -20 3 -45 22 -52 28 -20 19 14 -4 32 -14 40 -22z m50 -27 c-7 -7 -13
-7 -20 0 -6 6 -3 10 10 10 13 0 16 -4 10 -10z m-3651 -40 c-2 -2 -15 -9 -29
-15 -24 -11 -24 -11 -6 3 16 13 49 24 35 12z m4451 -21 c0 -8 -4 -15 -10 -15
-5 0 -7 7 -4 15 4 8 8 15 10 15 2 0 4 -7 4 -15z m-4565 -45 c-3 -5 -12 -10
-18 -10 -7 0 -6 4 3 10 19 12 23 12 15 0z m-105 -60 c-14 -10 -27 -17 -29 -14
-6 5 31 33 44 33 6 1 -1 -8 -15 -19z m-45 -30 c-3 -5 -12 -10 -18 -10 -7 0 -6
4 3 10 19 12 23 12 15 0z m1285 -260 c0 -5 -5 -10 -11 -10 -5 0 -7 5 -4 10 3
6 8 10 11 10 2 0 4 -4 4 -10z m-82 -70 c-7 -10 -14 -17 -17 -15 -4 4 18 35 25
35 2 0 -1 -9 -8 -20z m118 -183 c20 7 18 0 -18 -70 -18 -34 -31 -65 -30 -69 1
-5 -2 -8 -6 -8 -4 0 -8 16 -8 35 0 26 3 32 12 24 9 -8 11 -5 7 10 -4 14 -1 21
9 21 10 0 13 10 11 38 -2 20 0 32 3 25 3 -7 12 -9 20 -6z m-76 -167 c-14 -4
-32 -8 -40 -9 -13 -1 -13 0 0 9 8 5 26 9 40 9 l25 -1 -25 -8z m3030 -15 c0 -8
-4 -15 -9 -15 -13 0 -22 16 -14 24 11 11 23 6 23 -9z m-3230 -25 c0 -5 -8 -10
-17 -10 -9 0 -25 -8 -36 -17 -21 -18 -16 -3 8 24 12 15 45 17 45 3z m-941 -64
c9 -11 9 -16 0 -22 -7 -4 -9 -3 -5 4 3 6 -2 15 -11 21 -10 6 -13 11 -7 11 6 0
17 -6 23 -14z m1594 -35 c124 -32 238 -98 346 -198 l94 -88 26 35 c65 87 151
161 233 200 118 57 205 74 373 75 111 0 165 -5 260 -25 66 -13 126 -28 133
-33 7 -6 38 -55 69 -111 32 -56 103 -171 160 -257 57 -86 103 -161 103 -166 0
-6 -26 0 -57 13 -32 13 -64 24 -71 24 -8 0 -89 19 -180 43 l-167 42 -200 -1
c-178 0 -210 -3 -285 -24 -161 -44 -266 -97 -352 -178 l-48 -45 -42 39 c-92
84 -241 155 -402 191 -97 21 -326 25 -447 8 -135 -20 -387 -80 -461 -110 -33
-13 -19 16 66 144 94 142 161 252 199 327 14 27 31 55 39 61 11 9 119 35 238
57 61 11 297 -3 373 -23z m-1082 -506 c7 5 10 1 7 -9 -5 -26 -19 -24 -37 4
-15 23 -15 24 1 12 9 -8 22 -11 29 -7z m1025 -76 c76 -11 168 -41 262 -85 53
-24 94 -53 146 -104 40 -38 77 -70 83 -70 6 0 40 26 75 58 35 31 87 72 115 90
60 39 199 95 270 110 88 19 302 25 403 12 145 -19 432 -101 415 -118 -3 -3
-22 -11 -43 -18 -32 -12 -47 -11 -115 7 -80 20 -343 49 -453 49 -86 0 -273
-36 -352 -67 -51 -21 -83 -43 -132 -92 -110 -109 -127 -121 -179 -121 -58 0
-102 26 -172 104 -42 46 -72 68 -134 97 -120 56 -172 64 -400 63 -164 0 -219
-4 -305 -21 -163 -34 -202 -37 -244 -19 -46 19 -46 31 2 44 20 5 96 26 167 46
182 52 402 65 591 35z m1370 -233 c22 -16 23 -16 -61 -41 -27 -8 -66 -14 -85
-14 -31 1 -29 2 15 11 86 16 88 35 3 48 -52 7 -52 8 28 9 55 1 86 -3 100 -13z
m-393 -13 c-7 -2 -19 -2 -25 0 -7 3 -2 5 12 5 14 0 19 -2 13 -5z m-53 -7 c0
-2 -7 -7 -16 -10 -8 -3 -12 -2 -9 4 6 10 25 14 25 6z m-134 -75 c-15 -16 -15
-20 -1 -31 8 -7 24 -10 35 -7 11 3 20 1 20 -3 0 -8 -14 -12 -95 -25 l-40 -7
25 29 c26 30 62 62 69 63 2 0 -3 -8 -13 -19z m197 -22 c-6 -6 -39 -12 -74 -15
-45 -2 -57 -1 -39 5 14 5 44 9 68 10 25 1 42 6 42 13 0 6 3 8 7 5 4 -4 2 -12
-4 -18z"/>
<path d="M5123 8620 c0 -36 2 -50 4 -32 2 17 2 47 0 65 -2 17 -4 3 -4 -33z"/>
<path d="M4615 8590 c-7 -11 31 -94 50 -110 21 -17 26 5 6 26 -31 34 -53 73
-46 84 3 5 4 10 1 10 -3 0 -7 -4 -11 -10z"/>
<path d="M5625 8500 c-3 -5 -1 -10 4 -10 6 0 11 5 11 10 0 6 -2 10 -4 10 -3 0
-8 -4 -11 -10z"/>
<path d="M5603 8463 c-3 -10 -8 -21 -10 -25 -10 -19 6 -5 21 17 9 14 12 25 6
25 -6 0 -13 -8 -17 -17z"/>
<path d="M3675 8440 c-3 -5 1 -10 9 -10 9 0 16 -3 16 -8 0 -11 -39 -34 -49
-28 -4 3 -8 -1 -8 -9 0 -21 6 -19 62 21 35 26 43 35 26 31 -14 -4 -30 -2 -37
4 -8 7 -14 7 -19 -1z"/>
<path d="M5048 8443 c6 -2 18 -2 25 0 6 3 1 5 -13 5 -14 0 -19 -2 -12 -5z"/>
<path d="M5550 8377 c-29 -43 -31 -47 -23 -47 10 0 47 59 41 65 -2 2 -10 -6
-18 -18z"/>
<path d="M5460 8356 c0 -2 8 -10 18 -17 15 -13 16 -12 3 4 -13 16 -21 21 -21
13z"/>
<path d="M4620 8330 c8 -5 22 -9 30 -9 10 0 8 3 -5 9 -27 12 -43 12 -25 0z"/>
<path d="M3306 8165 c4 -8 11 -15 16 -15 6 0 5 6 -2 15 -7 8 -14 15 -16 15 -2
0 -1 -7 2 -15z"/>
<path d="M5970 8173 c-8 -4 -45 -28 -81 -55 -37 -26 -80 -55 -95 -63 -16 -8
-22 -15 -13 -15 9 0 19 3 23 8 4 4 11 7 14 7 4 0 27 15 52 34 25 18 64 44 88
58 50 30 57 43 12 26z"/>
<path d="M6797 7762 c-32 -33 -36 -54 -6 -26 20 18 44 54 36 54 -2 0 -15 -13
-30 -28z"/>
<path d="M6701 7645 c-28 -36 -89 -107 -134 -158 -45 -50 -74 -86 -64 -78 11
9 17 10 17 2 0 -6 9 -11 20 -11 11 0 20 5 20 10 0 15 28 12 37 -4 9 -16 40
-22 63 -13 8 3 31 10 50 15 34 8 69 50 50 62 -14 9 -23 57 -11 64 6 4 11 20
11 37 0 22 -5 29 -19 29 -29 0 -36 31 -10 51 12 9 19 21 15 27 -3 6 0 12 6 15
7 2 10 7 7 11 -4 4 -30 -23 -58 -59z m9 -35 c0 -5 -5 -10 -11 -10 -5 0 -7 5
-4 10 3 6 8 10 11 10 2 0 4 -4 4 -10z m30 -154 c0 -2 -7 -9 -15 -16 -13 -11
-14 -10 -9 4 5 14 24 23 24 12z m-45 -36 c3 -5 1 -10 -4 -10 -6 0 -11 5 -11
10 0 6 2 10 4 10 3 0 8 -4 11 -10z"/>
<path d="M6088 7653 c6 -2 18 -2 25 0 6 3 1 5 -13 5 -14 0 -19 -2 -12 -5z"/>
<path d="M5878 7643 c7 -3 16 -2 19 1 4 3 -2 6 -13 5 -11 0 -14 -3 -6 -6z"/>
<path d="M6848 7565 c-6 -7 19 -82 43 -131 9 -18 71 -54 92 -54 4 0 15 -8 26
-19 27 -27 11 -45 -58 -66 -56 -17 -60 -20 -66 -54 -15 -85 -26 -111 -45 -111
-22 0 -36 22 -56 89 -17 60 -37 77 -96 84 -39 6 -46 4 -41 -9 3 -8 13 -12 22
-9 25 7 90 -45 91 -72 0 -12 5 -25 10 -28 17 -10 11 -25 -10 -25 -13 0 -20 -7
-20 -20 0 -11 5 -20 10 -20 6 0 10 -9 10 -20 0 -13 7 -20 20 -20 13 0 20 -7
20 -20 0 -11 -7 -20 -15 -20 -26 0 -17 -37 10 -42 19 -4 25 -1 25 13 0 21 16
26 22 8 3 -8 19 -3 48 13 139 77 159 91 154 99 -3 5 -2 9 3 8 4 -1 15 -1 23 0
13 1 13 2 0 12 -12 8 -10 9 7 4 16 -4 53 12 138 61 64 37 118 71 121 76 4 5
-2 5 -12 -1 -11 -6 -35 -18 -54 -27 -32 -16 -34 -16 -21 -1 9 11 10 17 2 17
-6 0 -11 9 -11 20 0 13 -7 20 -20 20 -11 0 -20 5 -20 10 0 6 -9 10 -20 10 -13
0 -20 7 -20 20 0 17 -7 20 -40 20 -22 0 -40 5 -40 10 0 6 -9 10 -20 10 -13 0
-20 7 -20 20 0 13 -7 20 -20 20 -13 0 -20 7 -20 20 0 13 -7 20 -20 20 -17 0
-20 7 -20 40 l0 40 -44 0 -45 0 10 -30 c6 -16 9 -35 6 -42 -3 -7 -6 -4 -6 8
-1 11 -5 24 -10 30 -5 5 -11 17 -13 27 -1 11 -6 16 -10 12z m72 -135 c0 -5 -2
-10 -4 -10 -3 0 -8 5 -11 10 -3 6 -1 10 4 10 6 0 11 -4 11 -10z"/>
<path d="M3308 7543 c7 -3 16 -2 19 1 4 3 -2 6 -13 5 -11 0 -14 -3 -6 -6z"/>
<path d="M3370 7511 c0 -8 19 -37 21 -31 0 3 2 12 4 21 1 9 -4 16 -11 16 -8 0
-14 -3 -14 -6z"/>
<path d="M6760 7501 c0 -6 4 -13 10 -16 6 -3 7 1 4 9 -7 18 -14 21 -14 7z"/>
<path d="M6451 7359 c-13 -17 -21 -33 -18 -35 6 -6 47 45 47 57 0 14 -5 11
-29 -22z"/>
<path d="M3530 7341 c0 -26 -19 -39 -79 -52 -57 -12 -71 -29 -69 -88 1 -46 18
-38 18 9 0 29 5 43 17 47 9 4 19 1 21 -5 5 -16 30 -15 48 2 7 8 18 16 24 18 6
2 12 12 14 22 1 10 10 24 19 31 21 15 21 21 2 29 -10 3 -15 -1 -15 -13z"/>
<path d="M3731 7325 c8 -11 26 -33 42 -48 15 -16 27 -32 27 -35 0 -4 10 -13
23 -21 21 -14 21 -13 7 5 -23 30 -115 121 -99 99z"/>
<path d="M3156 7285 c6 -13 29 -20 60 -16 7 1 14 -5 17 -14 7 -18 37 -9 37 11
0 18 -41 34 -85 34 -26 0 -33 -3 -29 -15z"/>
<path d="M3969 7256 c38 -40 43 -43 35 -23 -3 8 -19 24 -37 37 l-32 23 34 -37z"/>
<path d="M4370 7259 c0 -5 5 -7 10 -4 6 3 10 8 10 11 0 2 -4 4 -10 4 -5 0 -10
-5 -10 -11z"/>
<path d="M5760 7254 c0 -8 5 -12 10 -9 6 3 10 2 10 -3 0 -5 18 -17 40 -27 22
-10 40 -22 40 -27 0 -13 62 -48 85 -48 13 0 9 5 -15 18 -19 9 -61 39 -93 65
-61 50 -77 56 -77 31z"/>
<path d="M4304 7215 c-21 -20 -30 -31 -19 -26 30 15 82 60 69 61 -6 0 -28 -16
-50 -35z"/>
<path d="M2618 7223 c-9 -10 -18 -29 -20 -43 -3 -14 -9 -34 -13 -45 -6 -19 -6
-19 8 -2 9 11 21 15 31 11 13 -5 17 -2 14 12 -2 13 4 20 20 22 12 2 22 -2 22
-8 0 -6 12 -11 28 -10 46 3 62 0 60 -11 -2 -6 16 -18 39 -27 23 -10 52 -27 65
-40 14 -12 30 -22 36 -22 7 0 12 -4 12 -10 0 -5 3 -9 8 -9 18 3 29 -3 66 -36
22 -19 47 -35 55 -36 45 -2 86 -23 76 -39 -2 -4 14 -10 36 -13 22 -3 49 -13
60 -23 10 -9 19 -13 19 -7 0 6 -53 38 -117 73 -159 85 -245 134 -328 190 -62
41 -147 90 -158 90 -2 0 -11 -8 -19 -17z m25 -20 c-7 -2 -19 -2 -25 0 -7 3 -2
5 12 5 14 0 19 -2 13 -5z"/>
<path d="M2951 7196 c2 -2 15 -9 29 -15 24 -11 24 -11 6 3 -16 13 -49 24 -35
12z"/>
<path d="M4800 7196 c0 -2 8 -10 18 -17 15 -13 16 -12 3 4 -13 16 -21 21 -21
13z"/>
<path d="M4180 7156 c0 -2 7 -7 16 -10 8 -3 12 -2 9 4 -6 10 -25 14 -25 6z"/>
<path d="M3107 7109 c7 -7 15 -10 18 -7 3 3 -2 9 -12 12 -14 6 -15 5 -6 -5z"/>
<path d="M4405 7071 l-30 -7 2 -89 c3 -109 25 -206 68 -300 39 -85 60 -105
150 -146 65 -29 76 -31 143 -25 86 7 106 16 128 58 13 25 15 47 10 99 -8 86
-42 197 -69 227 -36 39 -139 118 -183 140 -65 33 -168 53 -219 43z m185 -161
c105 -53 170 -145 170 -241 0 -66 -82 -76 -152 -19 -40 33 -94 129 -102 180
-18 123 -18 122 6 114 13 -3 48 -19 78 -34z"/>
<path d="M4670 6718 c28 -47 69 -95 70 -82 0 16 -63 107 -78 112 -7 2 -4 -11
8 -30z"/>
<path d="M5570 7052 c-36 -9 -86 -29 -112 -44 -56 -34 -124 -108 -150 -166
-40 -89 -61 -259 -38 -302 13 -23 68 -40 135 -40 87 0 222 87 264 169 33 64
60 173 69 276 8 86 7 102 -6 113 -21 16 -84 14 -162 -6z m47 -149 c-4 -20 -12
-40 -19 -45 -7 -4 -10 -8 -6 -8 4 0 -2 -19 -12 -42 -10 -24 -21 -55 -23 -69
-3 -15 -11 -36 -19 -49 -14 -23 -102 -73 -111 -63 -9 9 21 63 64 114 22 26 39
49 39 53 0 11 -78 -80 -104 -122 -15 -24 -32 -42 -39 -39 -36 11 -6 142 48
204 33 39 140 103 173 103 11 0 13 -8 9 -37z"/>
<path d="M6020 7028 c0 -16 -4 -28 -10 -28 -18 0 -11 -35 10 -48 12 -7 20 -8
20 -2 0 5 8 10 18 10 9 0 24 5 32 11 12 8 11 9 -6 4 -18 -5 -25 2 -42 37 -19
40 -21 41 -22 16z"/>
<path d="M6766 6975 c-3 -8 -12 -15 -21 -15 -8 0 -15 -5 -15 -10 0 -7 6 -7 18
-1 24 13 47 41 34 41 -5 0 -12 -7 -16 -15z"/>
<path d="M7150 6969 c0 -5 5 -7 10 -4 6 3 10 8 10 11 0 2 -4 4 -10 4 -5 0 -10
-5 -10 -11z"/>
<path d="M6702 6949 c2 -7 -9 -19 -24 -26 -16 -8 -28 -18 -28 -23 0 -5 16 0
35 11 36 22 43 33 25 44 -6 4 -9 1 -8 -6z"/>
<path d="M2506 6898 c-4 -18 -7 -47 -7 -65 1 -18 -4 -35 -9 -38 -17 -11 -11
-35 9 -35 18 0 20 7 19 85 -1 47 -3 85 -4 85 -1 0 -5 -15 -8 -32z"/>
<path d="M3250 6880 c0 -12 28 -25 36 -17 3 3 -4 10 -15 17 -15 7 -21 7 -21 0z"/>
<path d="M6566 6858 c3 -5 10 -6 15 -3 13 9 11 12 -6 12 -8 0 -12 -4 -9 -9z"/>
<path d="M3312 6850 c3 -8 20 -18 38 -23 26 -7 30 -11 19 -18 -12 -8 -12 -10
1 -8 19 3 70 -21 70 -33 0 -5 4 -7 8 -4 5 3 21 -4 38 -15 16 -10 34 -19 39
-19 6 0 -3 8 -20 18 -122 74 -152 91 -165 94 -8 2 -19 8 -23 13 -5 6 -7 4 -5
-5z"/>
<path d="M2784 6825 c-10 -8 -14 -15 -8 -15 6 0 17 7 24 15 16 19 9 19 -16 0z"/>
<path d="M7180 6829 c0 -5 5 -7 10 -4 6 3 10 8 10 11 0 2 -4 4 -10 4 -5 0 -10
-5 -10 -11z"/>
<path d="M2725 6773 l-18 -28 27 24 c28 26 31 31 17 31 -5 0 -17 -12 -26 -27z"/>
<path d="M7420 6776 c0 -2 7 -9 15 -16 13 -11 14 -10 9 4 -5 14 -24 23 -24 12z"/>
<path d="M2683 6715 c-3 -9 -3 -18 -1 -21 3 -3 8 4 11 16 6 23 -1 27 -10 5z"/>
<path d="M7042 6658 c-1 -11 -10 -18 -22 -18 -25 0 -26 -28 -2 -46 16 -13 16
-14 -3 -8 -17 5 -16 2 5 -16 l25 -22 3 31 c2 17 1 46 -1 64 -2 17 -5 24 -5 15z"/>
<path d="M2649 6611 c4 -39 5 -42 12 -21 11 39 10 57 -3 63 -10 3 -12 -8 -9
-42z"/>
<path d="M3677 6649 c7 -7 15 -10 18 -7 3 3 -2 9 -12 12 -14 6 -15 5 -6 -5z"/>
<path d="M3131 6618 c0 -16 3 -28 9 -28 5 0 6 -8 3 -17 -6 -14 -4 -15 8 -5 8
7 25 21 39 33 14 11 18 17 10 13 -32 -17 -59 -13 -63 9 -3 18 -5 17 -6 -5z"/>
<path d="M7501 6590 c0 -42 1 -44 14 -26 17 23 19 36 6 36 -5 0 -12 8 -14 18
-3 9 -5 -3 -6 -28z"/>
<path d="M6691 6457 c-1 -16 -5 -26 -11 -22 -5 3 -10 2 -10 -3 0 -12 29 -24
41 -16 5 3 8 20 8 37 -2 28 -2 29 -7 7 l-5 -25 -8 25 -7 25 -1 -28z"/>
<path d="M7258 6363 c7 -3 16 -2 19 1 4 3 -2 6 -13 5 -11 0 -14 -3 -6 -6z"/>
<path d="M7460 6359 c58 -4 140 -10 183 -14 67 -7 77 -6 77 9 0 14 -20 16
-182 14 -174 -2 -178 -2 -78 -9z"/>
<path d="M3866 6304 c-4 -9 -4 -19 -1 -22 2 -3 7 3 11 12 4 9 4 19 1 22 -2 3
-7 -3 -11 -12z"/>
<path d="M6735 6300 c-7 -12 2 -12 30 0 19 8 19 9 -2 9 -12 1 -25 -3 -28 -9z"/>
<path d="M6698 6293 c7 -3 16 -2 19 1 4 3 -2 6 -13 5 -11 0 -14 -3 -6 -6z"/>
<path d="M3688 6263 c6 -2 18 -2 25 0 6 3 1 5 -13 5 -14 0 -19 -2 -12 -5z"/>
<path d="M6468 6263 c7 -3 16 -2 19 1 4 3 -2 6 -13 5 -11 0 -14 -3 -6 -6z"/>
<path d="M6420 6256 c0 -2 7 -7 16 -10 8 -3 12 -2 9 4 -6 10 -25 14 -25 6z"/>
<path d="M7723 6200 c0 -25 2 -35 4 -22 2 12 2 32 0 45 -2 12 -4 2 -4 -23z"/>
<path d="M6240 5971 c0 -5 11 -18 25 -29 21 -17 36 -19 117 -15 51 3 95 7 97
9 2 2 -39 4 -91 4 -81 0 -99 3 -122 21 -14 11 -26 16 -26 10z"/>
<path d="M3860 5939 c0 -5 5 -7 10 -4 6 3 10 8 10 11 0 2 -4 4 -10 4 -5 0 -10
-5 -10 -11z"/>
<path d="M6548 5933 c12 -2 30 -2 40 0 9 3 -1 5 -23 4 -22 0 -30 -2 -17 -4z"/>
<path d="M6834 5744 c-10 -8 -12 -12 -4 -7 8 4 56 11 105 14 l90 5 -86 2 c-65
2 -90 -2 -105 -14z"/>
<path d="M6127 6655 c-20 -14 -37 -30 -37 -36 0 -5 18 5 40 22 36 29 45 39 37
39 -1 0 -19 -11 -40 -25z"/>
<path d="M5900 6594 c-93 -58 -132 -126 -47 -83 57 29 91 56 116 90 20 26 20
29 4 28 -10 -1 -43 -16 -73 -35z"/>
<path d="M4988 4851 c-5 -18 -8 -45 -8 -60 1 -23 2 -24 11 -8 6 9 9 36 7 60
l-3 42 -7 -34z"/>
<path d="M5150 4740 c-1 -36 -3 -73 -5 -83 -2 -9 1 -15 6 -11 5 3 7 9 4 14 -3
5 1 15 9 22 22 23 28 55 12 70 -7 8 -16 23 -19 34 -2 10 -6 -10 -7 -46z"/>
<path d="M4982 4730 c0 -19 2 -27 5 -17 2 9 2 25 0 35 -3 9 -5 1 -5 -18z"/>
<path d="M3806 5359 c-37 -20 -132 -86 -111 -78 46 19 125 63 125 70 0 5 7 9
15 9 8 0 15 5 15 10 0 12 3 13 -44 -11z"/>
<path d="M3538 5194 c-38 -20 -36 -28 2 -9 17 9 30 18 30 20 0 7 -1 6 -32 -11z"/>
<path d="M3370 5085 c-41 -30 -84 -61 -95 -68 -19 -14 -19 -14 7 -14 15 0 25
4 22 9 -3 4 8 13 25 19 17 6 28 15 25 20 -3 5 1 9 8 9 7 0 24 12 37 25 12 14
28 22 35 18 6 -3 8 -3 4 2 -4 4 -3 14 3 22 19 22 8 15 -71 -42z"/>
<path d="M3190 4958 c-19 -12 -66 -47 -105 -78 -38 -30 -81 -63 -95 -73 -14
-9 -38 -28 -55 -42 l-30 -25 47 2 c33 2 48 7 48 17 0 9 -7 11 -21 8 -20 -5
-20 -5 -3 14 9 10 22 19 28 19 6 0 17 9 24 20 8 14 23 20 46 20 29 0 33 -3 29
-20 -4 -17 0 -20 24 -20 17 0 34 8 43 20 8 11 22 20 32 20 13 0 18 8 18 30 0
17 -4 30 -10 30 -5 0 -10 5 -10 10 0 6 9 10 20 10 16 0 20 7 20 30 0 35 -3 35
-50 8z m40 -6 c0 -8 -43 -32 -56 -32 -15 0 28 31 54 39 1 1 2 -3 2 -7z m-70
-62 c0 -5 -2 -10 -4 -10 -3 0 -8 5 -11 10 -3 6 -1 10 4 10 6 0 11 -4 11 -10z"/>
<path d="M6210 5416 c0 -11 84 -57 98 -54 13 3 8 9 -15 21 -38 20 -83 38 -83
33z"/>
<path d="M6334 5351 c8 -13 66 -44 72 -39 2 3 -15 15 -38 28 -22 13 -38 18
-34 11z"/>
<path d="M6440 5293 c0 -5 34 -26 75 -48 41 -22 78 -47 80 -56 3 -9 15 -21 28
-26 12 -6 43 -26 69 -46 25 -19 49 -33 52 -30 3 3 18 -6 32 -20 15 -15 30 -24
35 -21 4 2 17 -4 28 -15 11 -11 29 -25 41 -31 18 -10 19 -14 8 -27 -12 -15
-11 -15 9 -5 14 8 24 9 28 2 3 -5 16 -15 28 -21 16 -8 13 -3 -8 15 -126 110
-505 357 -505 329z"/>
<path d="M4310 4404 c-14 -2 -56 -9 -95 -15 -98 -16 -144 -36 -151 -66 -4 -13
-3 -28 2 -33 5 -4 50 1 99 12 63 14 131 20 230 20 158 2 221 -10 379 -69 96
-36 99 -37 112 -18 8 11 13 24 11 30 -6 20 -147 85 -238 110 -91 24 -284 41
-349 29z"/>
<path d="M5600 4403 c-65 -10 -208 -47 -249 -65 -57 -24 -111 -64 -111 -82 0
-28 36 -25 136 9 57 20 137 42 176 50 97 19 293 12 418 -14 121 -26 120 -26
120 8 0 37 -11 45 -90 64 -124 31 -310 44 -400 30z"/>
<path d="M4190 4220 c-135 -24 -177 -35 -195 -50 -18 -15 -20 -57 -3 -62 6 -2
52 4 102 14 124 25 325 34 423 19 95 -15 250 -56 311 -82 54 -23 72 -19 72 16
0 18 -10 31 -32 45 -105 64 -335 121 -486 119 -48 0 -134 -9 -192 -19z"/>
<path d="M5555 4224 c-96 -17 -155 -36 -252 -80 -60 -27 -73 -38 -73 -56 1
-53 11 -54 131 -9 212 77 363 89 613 46 194 -32 198 -32 194 2 -3 24 -12 31
-76 56 -140 53 -369 71 -537 41z"/>
<path d="M6933 3773 c-28 -5 -39 -33 -13 -33 18 0 20 -7 20 -69 0 -78 13 -101
58 -101 32 0 60 16 49 27 -4 4 -16 2 -26 -4 -27 -17 -31 -8 -31 68 0 61 2 67
23 73 34 9 37 8 37 -14 0 -11 -6 -20 -14 -20 -9 0 -12 -8 -8 -25 2 -14 10 -25
18 -25 7 0 14 -14 16 -32 2 -25 8 -33 23 -33 16 0 21 8 23 38 2 26 8 37 19 37
13 0 14 -8 9 -39 -5 -36 -4 -39 15 -34 28 8 42 49 34 101 -7 50 -37 75 -87 71
-18 -1 -40 1 -48 4 -23 8 -93 14 -117 10z m197 -53 c0 -11 -7 -20 -15 -20 -8
0 -15 9 -15 20 0 11 7 20 15 20 8 0 15 -9 15 -20z"/>
<path d="M8870 3152 c-16 -5 -40 -31 -40 -43 0 -4 10 -9 23 -11 19 -3 23 -10
27 -63 4 -47 9 -61 23 -63 15 -3 17 5 17 71 0 60 3 76 16 81 24 9 26 5 31 -68
4 -45 10 -66 19 -66 7 0 16 5 19 10 3 6 14 10 24 10 10 0 23 10 29 23 10 20
11 19 11 -15 1 -30 5 -38 20 -38 25 0 31 19 31 90 0 74 -6 90 -35 90 -17 0
-26 -8 -34 -30 -12 -37 -17 -37 -35 -2 -14 27 -19 29 -73 29 -32 0 -65 -2 -73
-5z"/>
<path d="M1500 3090 c-1 -3 -1 -165 0 -361 1 -219 -3 -366 -9 -382 -22 -58
-20 -59 223 -54 136 2 236 9 260 16 46 15 118 79 140 125 21 45 20 132 -2 176
-9 19 -36 49 -59 66 l-42 32 25 17 c33 21 64 89 64 140 0 68 -18 110 -63 152
-70 65 -104 72 -335 75 -111 2 -202 1 -202 -2z m414 -186 c34 -34 34 -77 1
-109 -23 -24 -31 -25 -135 -25 l-110 0 0 80 0 80 109 0 c104 0 109 -1 135 -26z
m22 -317 c32 -37 31 -77 -2 -108 -24 -22 -35 -24 -145 -27 l-119 -4 0 87 0 87
121 -4 c118 -3 121 -4 145 -31z"/>
<path d="M3713 3085 c-115 -31 -185 -87 -240 -190 -85 -161 -63 -337 57 -468
146 -160 411 -183 588 -50 l32 24 0 168 c0 145 -2 170 -16 175 -9 3 -83 6
-165 6 l-149 0 0 -52 c0 -29 -3 -63 -6 -75 -6 -23 -5 -23 90 -23 l96 0 0 -54
c0 -64 -9 -74 -84 -91 -97 -23 -195 10 -260 87 -43 49 -71 133 -63 189 11 87
93 176 181 200 69 19 130 7 196 -38 l58 -40 51 53 c28 29 51 57 51 63 0 19
-99 89 -155 110 -66 25 -182 27 -262 6z"/>
<path d="M4316 3092 c-3 -5 -1 -23 5 -40 10 -28 8 -677 -2 -727 -4 -19 1 -20
91 -20 l95 0 -3 25 c-2 14 -7 82 -10 153 l-7 127 168 0 167 0 0 -133 c0 -90
-4 -137 -12 -145 -8 -8 -9 -15 -2 -22 13 -13 171 -17 184 -4 7 7 7 26 0 63
-10 55 -6 663 5 692 11 28 -17 37 -100 32 l-80 -5 3 -159 4 -159 -167 0 -168
0 5 160 5 160 -66 0 c-36 0 -76 3 -87 6 -12 3 -24 1 -28 -4z"/>
<path d="M5124 3091 c-2 -2 -4 -40 -4 -83 l0 -78 118 0 117 0 -6 -292 c-4
-161 -8 -302 -10 -312 -3 -17 4 -21 41 -28 53 -10 147 -5 160 8 6 6 4 25 -5
49 -11 31 -14 103 -15 307 l0 267 118 3 117 3 3 69 c2 38 -1 73 -6 78 -8 8
-620 17 -628 9z"/>
<path d="M5899 3090 c-1 -3 0 -166 0 -363 1 -228 -2 -364 -9 -376 -22 -42 -5
-51 95 -51 52 0 97 4 100 10 3 5 -1 23 -10 39 -9 19 -15 57 -15 104 l0 74 128
10 c97 8 137 15 172 33 124 62 186 184 154 306 -19 75 -45 116 -97 154 -68 50
-121 60 -330 63 -103 1 -187 0 -188 -3z m405 -189 c35 -33 48 -83 33 -129 -9
-29 -22 -42 -57 -60 -38 -19 -58 -22 -130 -20 l-85 3 -1 118 -2 119 108 -4
c99 -3 111 -5 134 -27z"/>
<path d="M6815 3064 c-8 -20 -15 -41 -15 -46 0 -5 -12 -32 -26 -61 -30 -58
-62 -134 -130 -307 -25 -63 -71 -166 -101 -227 -30 -62 -51 -117 -48 -123 7
-11 79 -13 149 -4 31 5 46 11 46 22 0 8 10 46 23 83 l22 69 166 0 167 0 27
-67 c15 -38 30 -76 34 -86 6 -16 20 -19 96 -23 50 -2 96 0 102 4 10 6 3 26
-23 76 -20 38 -62 127 -93 200 -32 72 -97 220 -146 329 l-89 197 -73 0 -73 0
-15 -36z m139 -311 c70 -160 71 -147 -10 -140 -38 4 -88 7 -111 7 l-42 0 35
78 c20 42 43 96 52 120 9 23 19 42 23 42 3 0 27 -48 53 -107z"/>
<path d="M7297 3093 c-4 -3 -7 -42 -7 -85 l0 -78 126 0 c126 0 126 0 121 -22
-3 -13 -7 -156 -8 -318 l-2 -295 84 -3 c104 -3 118 4 101 51 -8 23 -12 117
-12 310 l0 276 118 3 117 3 0 80 0 80 -316 3 c-173 1 -318 -1 -322 -5z"/>
<path d="M8064 3020 c0 -41 -1 -221 -3 -400 l-4 -325 89 -3 c105 -3 123 5 106
43 -7 16 -12 75 -12 150 l0 125 156 0 156 0 -4 -155 c-3 -129 -2 -155 11 -160
8 -3 52 -3 99 1 80 7 83 8 76 28 -4 12 -9 190 -11 396 l-3 375 -30 -1 c-16 0
-56 -1 -88 -2 l-57 -2 4 -151 c2 -83 -1 -154 -5 -159 -5 -4 -76 -5 -157 -2
l-149 5 3 154 3 155 -91 2 -91 1 2 -75z"/>
<path d="M2288 2729 c2 -199 -1 -374 -6 -388 -15 -44 -6 -51 63 -51 34 0 76 3
92 6 l30 6 -5 119 -5 120 74 -3 74 -3 50 -78 c28 -42 62 -97 77 -122 l27 -45
101 0 c55 0 100 4 100 8 0 4 -43 68 -96 142 -86 120 -94 136 -78 145 161 92
188 308 53 429 -77 69 -109 76 -348 76 l-206 0 3 -361z m420 176 c44 -37 58
-77 43 -126 -19 -64 -54 -79 -183 -79 l-108 0 0 115 0 115 109 0 c102 0 112
-2 139 -25z"/>
<path d="M3095 2728 c0 -200 -4 -378 -9 -395 -11 -43 1 -47 107 -38 l82 6 0
395 0 394 -90 0 -90 0 0 -362z"/>
<path d="M3047 1943 c-3 -5 -2 -65 1 -135 l5 -128 25 0 25 0 -6 76 -7 76 29
-38 c30 -42 106 -114 120 -114 13 0 19 71 14 164 -5 73 -9 86 -25 92 -27 8
-29 4 -30 -65 l-1 -62 -33 32 c-19 18 -46 50 -60 71 -25 36 -47 48 -57 31z"/>
<path d="M5910 1940 c0 -10 34 -76 67 -134 7 -12 13 -33 13 -48 0 -41 18 -78
37 -78 15 0 18 9 19 48 0 37 10 67 41 124 30 55 38 79 30 87 -22 22 -46 11
-69 -31 -29 -53 -42 -57 -58 -18 -7 18 -19 38 -27 46 -17 16 -53 19 -53 4z"/>
<path d="M7180 1908 c-16 -22 -30 -47 -30 -55 0 -23 -14 -13 -53 38 -27 35
-44 49 -62 49 l-25 0 0 -124 0 -124 25 -4 c13 -3 27 -3 30 0 3 3 5 30 5 61 l1
56 31 -34 31 -35 38 45 38 44 1 -73 0 -73 28 3 27 3 3 124 c3 129 -1 140 -40
141 -10 0 -31 -19 -48 -42z"/>
<path d="M2872 1813 l3 -128 28 -3 28 -3 -3 128 -3 128 -28 3 -28 3 3 -128z"/>
<path d="M3366 1914 c-28 -29 -35 -74 -12 -93 7 -6 31 -17 52 -25 41 -14 51
-30 34 -56 -8 -13 -15 -12 -54 10 -52 28 -64 23 -46 -20 16 -38 37 -50 88 -50
48 0 88 29 97 71 9 39 -10 60 -76 88 -27 12 -47 26 -44 31 4 6 31 10 61 10 58
0 62 4 38 38 -23 34 -102 31 -138 -4z"/>
<path d="M3622 1819 c3 -117 4 -122 26 -130 21 -8 23 -6 20 27 -3 36 -2 37 45
49 64 16 87 39 87 86 0 29 -6 43 -31 63 -25 22 -41 26 -90 26 l-60 0 3 -121z
m113 40 c8 -25 -6 -42 -31 -37 -12 2 -20 13 -22 31 -3 23 0 27 22 27 16 0 27
-7 31 -21z"/>
<path d="M3887 1933 c-4 -3 -7 -61 -7 -129 l0 -122 25 -4 c14 -3 27 -2 30 2 2
3 4 63 4 133 1 126 0 127 -23 127 -12 0 -26 -3 -29 -7z"/>
<path d="M4052 1823 c-1 -65 2 -123 6 -129 4 -6 17 -14 30 -18 20 -7 22 -4 22
26 0 63 14 68 62 20 30 -29 52 -42 71 -42 l28 0 -27 35 c-20 27 -25 41 -19 62
18 71 17 108 -3 133 -17 21 -30 25 -95 28 l-74 4 -1 -119z m116 30 c-4 -33
-37 -43 -57 -19 -20 24 -6 46 29 46 28 0 31 -3 28 -27z"/>
<path d="M4302 1908 c3 -31 5 -33 36 -30 l32 3 0 -94 0 -95 30 -4 30 -5 0 76
c0 112 5 124 47 118 33 -6 34 -5 31 26 l-3 32 -103 3 -103 3 3 -33z"/>
<path d="M4775 1898 c-3 -24 -5 -81 -3 -128 3 -83 4 -85 28 -85 23 0 25 4 30
59 l5 58 48 -42 c26 -23 47 -48 47 -55 0 -19 17 -27 40 -20 19 6 20 15 20 131
l0 124 -30 0 c-29 0 -30 -2 -30 -42 0 -24 -3 -53 -6 -65 -6 -23 -12 -18 -96
86 -28 34 -46 26 -53 -21z"/>
<path d="M5105 1810 l0 -130 83 0 83 0 -3 28 c-3 25 -7 27 -50 30 -39 3 -48 7
-48 22 0 15 9 19 38 22 29 2 38 8 40 25 3 19 -2 22 -35 25 -30 2 -39 7 -41 25
-3 20 2 22 50 25 50 3 53 5 56 31 l3 27 -88 0 -88 0 0 -130z"/>
<path d="M5686 1919 c-23 -18 -27 -28 -24 -62 3 -39 6 -42 48 -58 36 -13 46
-22 48 -43 4 -30 3 -31 -32 -12 -34 17 -66 10 -66 -15 0 -22 47 -49 85 -49 42
0 83 26 90 59 9 41 -6 63 -59 92 -57 30 -62 54 -10 45 22 -5 41 -3 50 5 13 10
12 15 -7 36 -29 30 -86 31 -123 2z"/>
<path d="M6214 1906 c-19 -19 -34 -41 -34 -48 0 -21 30 -46 76 -61 28 -10 40
-20 42 -37 4 -22 2 -22 -58 -15 -72 8 -77 -4 -20 -42 43 -30 81 -29 119 3 53
44 31 111 -41 129 -35 9 -55 32 -40 47 7 7 19 7 39 1 34 -12 53 -7 53 14 0 23
-31 42 -68 43 -26 0 -43 -9 -68 -34z"/>
<path d="M6440 1910 c0 -28 3 -30 35 -30 l35 0 0 -100 0 -100 30 0 30 0 1 88
c1 48 1 93 0 100 -1 8 12 12 39 12 38 0 40 2 40 30 l0 30 -105 0 -105 0 0 -30z"/>
<path d="M6730 1810 l0 -131 88 3 c87 3 87 3 90 31 3 25 1 27 -35 27 -57 0
-84 10 -81 29 2 10 17 18 43 21 32 4 41 10 43 28 3 20 -1 22 -38 22 -37 0 -41
2 -38 23 3 19 10 22 56 25 48 3 52 5 52 28 0 24 -1 24 -90 24 l-90 0 0 -130z"/>
<path d="M4600 1805 c0 -69 4 -125 9 -125 38 0 41 10 41 131 l0 119 -25 0 -25
0 0 -125z"/>
<path d="M5402 1807 c-29 -30 -28 -45 5 -79 20 -20 36 -28 62 -28 l36 0 3 51
c1 40 -2 55 -15 65 -27 21 -67 17 -91 -9z"/>
</g>
</svg>
