<?xml version="1.0" standalone="no"?>
<!DOCTYPE svg PUBLIC "-//W3C//DTD SVG 20010904//EN"
 "http://www.w3.org/TR/2001/REC-SVG-20010904/DTD/svg10.dtd">
<svg version="1.0" xmlns="http://www.w3.org/2000/svg"
 width="60.000000pt" height="60.000000pt" viewBox="0 0 60.000000 60.000000"
 preserveAspectRatio="xMidYMid meet">
<metadata>
Created by potrace 1.16, written by Peter Selinger 2001-2019
</metadata>
<g transform="translate(0.000000,60.000000) scale(0.100000,-0.100000)"
fill="#000000" stroke="none">
<path d="M193 515 c-92 -46 -137 -128 -131 -241 3 -58 9 -80 33 -120 73 -117
233 -150 348 -71 15 10 24 23 21 29 -4 6 -2 8 4 4 18 -11 42 33 32 60 -5 13
-11 42 -12 63 -2 22 -6 37 -10 34 -11 -6 -10 11 2 23 5 5 10 37 11 71 1 42 6
60 13 57 6 -3 0 4 -14 16 -14 12 -18 18 -10 14 10 -5 9 0 -4 14 -10 12 -41 33
-69 47 -69 34 -145 34 -214 0z m145 -75 c27 -26 28 -50 3 -79 -11 -13 -22 -28
-24 -34 -2 -8 -20 -4 -53 13 -41 21 -49 30 -52 57 -2 23 3 35 20 47 31 22 80
20 106 -4z m98 -95 c8 -13 13 -29 9 -34 -3 -6 3 -23 14 -38 13 -18 21 -48 23
-83 l3 -55 -170 0 -170 0 3 45 c2 25 9 55 17 67 8 12 12 28 9 36 -7 18 23 49
44 45 17 -3 24 -16 42 -73 13 -41 35 -71 43 -58 3 5 8 22 11 40 4 17 14 37 22
44 8 6 14 23 14 38 0 53 57 71 86 26z"/>
</g>
</svg>
