<?xml version="1.0" standalone="no"?>
<!DOCTYPE svg PUBLIC "-//W3C//DTD SVG 20010904//EN"
 "http://www.w3.org/TR/2001/REC-SVG-20010904/DTD/svg10.dtd">
<svg version="1.0" xmlns="http://www.w3.org/2000/svg"
 width="60.000000pt" height="60.000000pt" viewBox="0 0 60.000000 60.000000"
 preserveAspectRatio="xMidYMid meet">
<metadata>
Created by potrace 1.16, written by Peter Selinger 2001-2019
</metadata>
<g transform="translate(0.000000,60.000000) scale(0.100000,-0.100000)"
fill="#000000" stroke="none">
<path d="M225 535 c-23 -8 -58 -33 -82 -60 -158 -173 -37 -477 179 -452 56 7
133 50 122 69 -4 6 -3 8 3 5 6 -4 19 6 29 21 18 28 21 72 5 82 -6 3 -10 50
-11 105 -2 137 -2 134 15 111 17 -23 20 -14 4 15 -5 11 -14 17 -19 14 -6 -3
-7 0 -4 8 7 19 -57 71 -105 86 -50 14 -87 13 -136 -4z m148 -107 c9 -5 17 -13
17 -18 0 -6 16 -10 35 -10 l35 0 0 -105 c0 -63 4 -105 10 -105 6 0 10 -13 10
-29 l0 -29 -162 5 c-90 3 -167 9 -172 14 -6 5 -5 17 2 31 7 13 13 66 14 118
l3 95 38 3 c32 3 37 0 37 -17 0 -14 -6 -21 -20 -21 -18 0 -20 -7 -20 -75 l0
-75 110 0 110 0 0 75 c0 84 -7 90 -69 59 -44 -22 -95 -9 -99 26 -2 14 -9 31
-14 37 -8 10 -2 17 23 28 34 14 76 12 112 -7z"/>
</g>
</svg>
